# xmcd
#
# Track frame offsets: 
#        150
#        20203
#        42663
#        63897
#        82405
#        106375
#        123917
#        139735
#        158141
#
# Disc length: 2391 seconds
#
# Revision: 2
# Processed by: cddbd v1.5.2PL0 Copyright (c) Steve Scherf et al.
# Submitted via: ExactAudioCopyFreeDBPlugin 1.0
#
DISCID=7f095509
DTITLE=群星 - DTS51品专录
DYEAR=2010
DGENRE=DTS
TTITLE0=春光美
TTITLE1=该死的温柔
TTITLE2=好男人
TTITLE3=梦中的唐古拉
TTITLE4=万泉河水清又清
TTITLE5=香烟爱火柴
TTITLE6=雪中莲
TTITLE7=追梦人
TTITLE8=做你的爱人
EXTD=
EXTT0=
EXTT1=
EXTT2=
EXTT3=
EXTT4=
EXTT5=
EXTT6=
EXTT7=
EXTT8=
PLAYORDER=
